<svg width="116" height="32" xmlns="http://www.w3.org/2000/svg"
     overflow="hidden">
    <defs>
        <clipPath id="clip0">
            <rect x="387" y="207" width="116" height="32"/>
        </clipPath>
        <linearGradient x1="96.8791" y1="7.18076" x2="96.8791" y2="25.0017" gradientUnits="userSpaceOnUse"
                        spreadMethod="pad" id="fill1">
            <stop offset="0" stop-color="#F48F41"/>
            <stop offset="1" stop-color="#F05E2D"/>
        </linearGradient>
        <linearGradient x1="139.625" y1="7.18076" x2="139.625" y2="25.0017" gradientUnits="userSpaceOnUse"
                        spreadMethod="pad" id="fill2">
            <stop offset="0" stop-color="#F48F41"/>
            <stop offset="1" stop-color="#F05E2D"/>
        </linearGradient>
        <linearGradient x1="124.568" y1="7.18079" x2="124.568" y2="25.0018" gradientUnits="userSpaceOnUse"
                        spreadMethod="pad" id="fill3">
            <stop offset="0" stop-color="#F48F41"/>
            <stop offset="1" stop-color="#F05E2D"/>
        </linearGradient>
        <linearGradient x1="110.903" y1="7.18075" x2="110.903" y2="25.0017" gradientUnits="userSpaceOnUse"
                        spreadMethod="pad" id="fill4">
            <stop offset="0" stop-color="#F48F41"/>
            <stop offset="1" stop-color="#F05E2D"/>
        </linearGradient>
        <linearGradient x1="14.7277" y1="0.383593" x2="14.7277" y2="32.0958" gradientUnits="userSpaceOnUse"
                        spreadMethod="pad" id="fill5">
            <stop offset="0" stop-color="#F48F41"/>
            <stop offset="1" stop-color="#F05E2D"/>
        </linearGradient>
    </defs>
    <g clip-path="url(#clip0)" transform="translate(-387 -207)">
        <path d="M47.2826 7.44567 41.913 24.7246 46.9457 24.7246 47.4784 22.6728 52.7174 22.6728 53.2717 24.7246 58.3044 24.7246 52.9348 7.44567 47.2826 7.44567ZM49.0979 17.8346 50.1088 13.8497 51.087 17.8346 49.0979 17.8346Z"
              fill="#FFFFFF" transform="matrix(1 0 0 1.0014 357.358 207)"/>
        <path d="M64.1413 15.9987 61.9348 7.44567 56.4239 7.44567 61.0761 24.5626 67.2174 24.5626 71.8587 7.44567 66.3479 7.44567 64.1413 15.9987Z"
              fill="#FFFFFF" transform="matrix(1 0 0 1.0014 357.358 207)"/>
        <path d="M75.2283 7.44567 69.8587 24.7246 74.8914 24.7246 75.424 22.6728 80.674 22.6728 81.2283 24.7246 86.2609 24.7246 80.8805 7.44567 75.2283 7.44567ZM77.0436 17.8346 78.0544 13.8497 79.0327 17.8346 77.0436 17.8346Z"
              fill="#FFFFFF" transform="matrix(1 0 0 1.0014 357.358 207)"/>
        <path d="M35.2066 7.44567 35.2066 11.9058 36.7175 11.9058 36.7175 17.6619C36.7175 17.9427 36.6631 18.2126 36.5544 18.4502 36.4457 18.6986 36.2936 18.9146 36.1088 19.0982 35.924 19.2926 35.7066 19.4329 35.4458 19.5517 35.1849 19.6598 33.7175 19.7137 33.4349 19.7137L32.2827 19.7137 32.2827 21.0097C32.2827 22.3164 31.9892 23.5799 31.4457 24.7246L34.837 24.7246C35.7936 24.7246 36.6957 24.5411 37.5327 24.1739 38.3697 23.8067 39.0979 23.3208 39.7284 22.6943 40.3479 22.0788 40.8479 21.3444 41.2175 20.5129 41.5871 19.6814 41.7718 18.785 41.7718 17.8346L41.7718 7.44567 35.2066 7.44567Z"
              fill="#FFFFFF" transform="matrix(1 0 0 1.0014 357.358 207)"/>
        <path d="M105.142 23.9579C104.392 23.2343 103.794 22.3812 103.359 21.4092 103.207 21.0853 103.087 20.7397 102.989 20.3941 102.685 20.6208 102.218 20.9232 102.043 21.0097 101.794 21.1284 101.533 21.2256 101.261 21.2796 100.99 21.3444 100.718 21.3768 100.445 21.3768 100.174 21.3768 99.9351 21.3336 99.7284 21.2365 99.2828 21.0421 98.9241 20.8368 98.6632 20.6101 98.4024 20.3833 98.185 20.1673 98.011 19.9837 98.7719 19.4546 99.4132 18.8066 99.9242 18.0182 100.435 17.2299 100.761 16.3443 100.903 15.3616 101.044 14.422 101.001 13.5149 100.772 12.6401 100.543 11.7654 100.163 10.977 99.6414 10.2535 99.1198 9.54074 98.4785 8.93597 97.6958 8.45 96.9241 7.96403 96.0654 7.64006 95.1197 7.48886 94.848 7.45646 94.5001 7.44567 94.0762 7.44567 93.6523 7.44567 93.3045 7.44567 93.0328 7.44567L88.0219 7.44567 88.0219 24.7246 93.0545 24.7246 93.0545 21.1069C93.3045 21.3768 93.5762 21.6792 93.848 22.014 94.1198 22.3487 94.4132 22.6943 94.7393 23.04 95.0654 23.3855 95.4458 23.7419 95.8697 24.0983 96.3045 24.4547 96.8045 24.8002 97.3806 25.135 97.7828 25.3618 98.2502 25.5346 98.7936 25.6642 99.3372 25.7938 99.9132 25.8585 100.511 25.8585 100.957 25.8585 101.435 25.8369 101.946 25.7829 102.457 25.7398 102.957 25.6534 103.435 25.5346 103.914 25.4158 104.37 25.2646 104.793 25.0702 105.153 24.9082 105.456 24.7138 105.718 24.4978 105.522 24.3143 105.327 24.1414 105.142 23.9579ZM95.4024 15.4912C95.0871 15.8152 94.6958 15.9771 94.2393 15.9771L93.0762 15.9771 93.0762 12.6618 94.2393 12.6618C94.6958 12.6618 95.0871 12.8238 95.4024 13.1369 95.7175 13.4501 95.8806 13.8388 95.8806 14.3033 95.8697 14.7676 95.7175 15.1564 95.4024 15.4912Z"
              fill="url(#fill1)" transform="matrix(1 0 0 1.0014 357.358 207)"/>
        <path d="M141.098 7.44567 141.098 13.5473 138.153 13.5473 138.153 7.44567 133.12 7.44567 133.12 24.7246 138.153 24.7246 138.153 18.5474 141.098 18.5474 141.098 24.7246 146.13 24.7246 146.13 7.44567 141.098 7.44567Z"
              fill="url(#fill2)" transform="matrix(1 0 0 1.0014 357.358 207)"/>
        <path d="M131.272 17.3055C131.077 16.7979 130.794 16.3335 130.445 15.9124 130.098 15.4912 129.675 15.124 129.196 14.8001 128.718 14.4869 128.185 14.2385 127.608 14.0657L124.88 13.1802C124.706 13.0722 124.555 12.921 124.435 12.7266 124.315 12.5322 124.348 12.3486 124.522 12.1759 124.75 12.003 125 11.8951 125.305 11.841 125.598 11.7979 125.903 11.787 126.228 11.8195 126.783 11.8951 127.403 12.0247 128.077 12.1974 128.75 12.3702 129.337 12.5646 129.848 12.7698 129.913 11.6898 129.957 10.8799 129.967 10.3507 129.978 9.82156 129.989 9.42198 129.989 9.1628 129.989 8.90361 129.989 8.70922 129.989 8.57963 129.989 8.45004 130 8.25566 130.033 7.98566 129.174 7.68329 128.315 7.47809 127.479 7.3809 126.642 7.27291 125.794 7.24052 124.946 7.27291 124.294 7.27291 123.598 7.37011 122.881 7.5537 122.228 7.71568 121.663 7.94247 121.185 8.25566 120.718 8.56884 120.327 8.92521 120.011 9.32479 119.695 9.72436 119.468 10.1672 119.326 10.6423 119.185 11.1174 119.109 11.6142 119.109 12.1218 119.109 12.4134 118.75 14.7137 121.827 16.7115 122.87 17.3919 124.446 18.0183 124.837 18.1695 125.022 18.2343 125.196 18.3207 125.359 18.4286 125.522 18.5367 125.663 18.6554 125.783 18.8066 125.892 18.9578 125.946 19.1306 125.946 19.3142 125.913 19.5842 125.805 19.7677 125.63 19.8758 125.456 19.9837 125.24 20.0378 124.978 20.0593 124.566 20.0593 123.261 19.7569 122.902 19.6273 122.022 19.3142 119.913 18.3855 119.087 18.0291L119.087 18.2235C119.087 19.3357 118.859 20.4049 118.424 21.3985 118.174 21.9492 117.881 22.4568 117.533 22.932 120.837 24.5951 123.467 24.919 125.305 24.8219 127.674 24.703 129.032 23.8715 130 22.9644 130.511 22.4784 130.881 21.8736 131.163 21.204 131.446 20.5237 131.576 19.7677 131.555 18.9254 131.576 18.353 131.478 17.8131 131.272 17.3055Z"
              fill="url(#fill3)" transform="matrix(1 0 0 1.0014 357.358 207)"/>
        <path d="M112.446 17.9966C112.446 18.3962 112.294 18.7418 111.978 19.0334 111.663 19.325 111.304 19.4761 110.892 19.4761 110.489 19.4761 110.142 19.325 109.826 19.0334 109.511 18.7418 109.359 18.3962 109.359 17.9966L109.359 7.39167 104.326 7.39167 104.326 18.2342C104.326 19.1197 104.5 19.9621 104.859 20.7505 105.207 21.5389 105.685 22.2192 106.282 22.8023 106.88 23.3855 107.576 23.839 108.369 24.1847 109.163 24.5303 110 24.6922 110.903 24.6922 111.794 24.6922 112.641 24.5194 113.446 24.1847 114.25 23.839 114.946 23.3855 115.543 22.8023 116.141 22.2192 116.62 21.5389 116.967 20.7505 117.316 19.9621 117.501 19.1305 117.501 18.2342L117.501 7.39167 112.468 7.39167 112.468 17.9966 112.446 17.9966Z"
              fill="url(#fill4)" transform="matrix(1 0 0 1.0014 357.358 207)"/>
        <path d="M26.4783 26.129 17.7065 31.1615C15.8696 32.2199 13.5979 32.2199 11.7608 31.1615L2.97826 26.129C1.13044 25.0815 0 23.1268 0 21.0101L0 10.9343C0 8.82847 1.13044 6.87379 2.97826 5.82625L11.7501 0.793752C13.587-0.264584 15.8587-0.264584 17.6956 0.793752L26.4783 5.82625C28.3153 6.88458 29.4566 8.83927 29.4566 10.9452L29.4566 21.021C29.4566 23.1268 28.3262 25.0815 26.4783 26.129Z"
              fill="url(#fill5)" transform="matrix(1 0 0 1.0014 357.358 207)"/>
        <path d="M10.9782 17.3703C11.1847 17.4675 11.3587 17.6186 11.4891 17.8023 11.6195 17.9858 11.7283 18.2126 11.7935 18.4718 11.8587 18.731 11.8913 19.0334 11.8913 19.3573L11.8913 21.5712C11.8913 22.1436 11.9674 22.6943 12.1195 23.2127 12.2717 23.7311 12.5327 24.217 12.913 24.649 13.2826 25.0918 13.7717 25.4805 14.3805 25.8262 14.9891 26.1718 15.7283 26.4417 16.587 26.6577L17.3587 24.7246C17.0434 24.6166 16.7826 24.4547 16.5761 24.2602 16.3696 24.055 16.2065 23.8175 16.087 23.5475 15.9674 23.2775 15.8805 22.9751 15.8261 22.6403 15.7826 22.3056 15.75 21.9492 15.75 21.582L15.75 19.3682C15.75 18.6446 15.5543 17.9858 15.1631 17.4026 14.7717 16.8087 14.1522 16.3335 13.2935 15.9879 14.1522 15.6424 14.7717 15.1672 15.1631 14.584 15.5543 13.99 15.75 13.3313 15.75 12.6078L15.75 10.3723C15.75 10.0051 15.7717 9.64873 15.8261 9.31396 15.8696 8.97917 15.9566 8.67679 16.087 8.4068 16.2065 8.13682 16.3696 7.89923 16.5761 7.69405 16.7826 7.48886 17.0434 7.33767 17.3587 7.22967L16.587 5.30739C15.7283 5.52338 14.9891 5.79336 14.3805 6.12814 13.7717 6.46292 13.2826 6.8517 12.913 7.29447 12.5434 7.73724 12.2826 8.21242 12.1195 8.73078 11.9674 9.24916 11.8913 9.79992 11.8913 10.3723L11.8913 12.5862C11.8913 13.2449 11.7608 13.7632 11.4891 14.1521 11.2283 14.5408 10.8044 14.7352 10.2174 14.7352L10.2174 17.2083C10.5109 17.2191 10.7608 17.2622 10.9782 17.3703Z"
              fill="#FFFFFF" transform="matrix(1 0 0 1.0014 357.358 207)"/>
    </g>
</svg>