<svg width="147" height="32" viewBox="0 0 147 32" fill="none" xmlns="http://www.w3.org/2000/svg">
    <path
            d="M47.3488 7.45609L41.9717 24.7592H47.0114L47.5448 22.7045H52.7912L53.3463 24.7592H58.386L53.0089 7.45609H47.3488ZM49.1666 17.8596L50.1789 13.8691L51.1585 17.8596H49.1666Z"
            fill="white"/>
    <path d="M64.2311 16.0211L62.0215 7.45609H56.5029L61.1616 24.597H67.3115L71.9593 7.45609H66.4408L64.2311 16.0211Z"
          fill="white"/>
    <path
            d="M75.3336 7.45609L69.9565 24.7592H74.9962L75.5295 22.7045H80.7869L81.342 24.7592H86.3816L80.9937 7.45609H75.3336ZM77.1514 17.8596L78.1636 13.8691L79.1433 17.8596H77.1514Z"
            fill="white"/>
    <path
            d="M35.2559 7.45609V11.9225H36.7689V17.6866C36.7689 17.9678 36.7144 18.2381 36.6056 18.476C36.4967 18.7248 36.3444 18.9411 36.1593 19.1249C35.9743 19.3196 35.7566 19.4601 35.4954 19.5791C35.2341 19.6873 33.7647 19.7413 33.4817 19.7413H32.3279V21.0391C32.3279 22.3476 32.034 23.6129 31.4897 24.7592H34.8858C35.8437 24.7592 36.7471 24.5754 37.5852 24.2077C38.4234 23.84 39.1526 23.3534 39.784 22.7261C40.4044 22.1097 40.9051 21.3743 41.2752 20.5416C41.6453 19.7089 41.8303 18.8113 41.8303 17.8596V7.45609H35.2559Z"
            fill="white"/>
    <path
            d="M105.289 23.9914C104.538 23.2668 103.939 22.4125 103.504 21.4392C103.351 21.1148 103.231 20.7687 103.133 20.4226C102.829 20.6497 102.361 20.9525 102.186 21.0391C101.936 21.158 101.675 21.2553 101.403 21.3094C101.131 21.3743 100.859 21.4067 100.586 21.4067C100.314 21.4067 100.075 21.3635 99.868 21.2662C99.4217 21.0715 99.0625 20.866 98.8013 20.6389C98.5401 20.4118 98.3224 20.1955 98.1482 20.0117C98.9101 19.4818 99.5523 18.8329 100.064 18.0434C100.576 17.254 100.902 16.3672 101.044 15.3831C101.185 14.4422 101.142 13.5338 100.913 12.6578C100.684 11.7819 100.303 10.9924 99.7809 10.2678C99.2585 9.55409 98.6163 8.94848 97.8325 8.46183C97.0597 7.97518 96.1998 7.65075 95.2528 7.49934C94.9807 7.4669 94.6324 7.45609 94.2079 7.45609C93.7834 7.45609 93.4351 7.45609 93.163 7.45609H88.1451V24.7592H93.1847V21.1364C93.4351 21.4067 93.7072 21.7095 93.9793 22.0448C94.2515 22.38 94.5453 22.7261 94.8719 23.0722C95.1984 23.4182 95.5794 23.7751 96.0039 24.132C96.4393 24.4889 96.94 24.8349 97.5169 25.1702C97.9196 25.3973 98.3877 25.5703 98.9319 25.7001C99.4762 25.8299 100.053 25.8947 100.652 25.8947C101.098 25.8947 101.577 25.8731 102.089 25.819C102.6 25.7758 103.101 25.6893 103.58 25.5703C104.059 25.4514 104.516 25.3 104.94 25.1053C105.3 24.9431 105.604 24.7484 105.866 24.5321C105.67 24.3483 105.474 24.1752 105.289 23.9914ZM95.5359 15.5129C95.2202 15.8373 94.8283 15.9995 94.3712 15.9995H93.2065V12.6795H94.3712C94.8283 12.6795 95.2202 12.8417 95.5359 13.1553C95.8515 13.4689 96.0148 13.8582 96.0148 14.3233C96.0039 14.7883 95.8515 15.1776 95.5359 15.5129Z"
            fill="url(#paint0_linear)"/>
    <path
            d="M141.295 7.45609V13.5663H138.346V7.45609H133.306V24.7592H138.346V18.5734H141.295V24.7592H146.335V7.45609H141.295Z"
            fill="url(#paint1_linear)"/>
    <path
            d="M131.456 17.3297C131.26 16.8214 130.977 16.3564 130.628 15.9347C130.28 15.5129 129.856 15.1452 129.377 14.8208C128.898 14.5072 128.364 14.2584 127.787 14.0854L125.055 13.1986C124.881 13.0905 124.729 12.9391 124.609 12.7444C124.489 12.5497 124.522 12.3659 124.696 12.1929C124.925 12.0198 125.175 11.9117 125.48 11.8576C125.774 11.8144 126.079 11.8035 126.405 11.836C126.96 11.9117 127.581 12.0415 128.256 12.2145C128.93 12.3875 129.518 12.5822 130.03 12.7877C130.095 11.7062 130.139 10.8951 130.149 10.3652C130.16 9.8353 130.171 9.43517 130.171 9.17562C130.171 8.91607 130.171 8.72141 130.171 8.59164C130.171 8.46187 130.182 8.26721 130.215 7.99684C129.355 7.69404 128.495 7.48856 127.657 7.39123C126.819 7.28309 125.97 7.25065 125.121 7.28309C124.468 7.28309 123.771 7.38042 123.053 7.56427C122.399 7.72648 121.833 7.95359 121.355 8.26721C120.887 8.58083 120.495 8.9377 120.179 9.33784C119.863 9.73797 119.635 10.1814 119.493 10.6572C119.352 11.133 119.276 11.6305 119.276 12.1388C119.276 12.4308 118.916 14.7343 121.997 16.7349C123.042 17.4162 124.62 18.0435 125.012 18.1949C125.197 18.2598 125.371 18.3463 125.534 18.4544C125.698 18.5626 125.839 18.6815 125.959 18.8329C126.068 18.9843 126.122 19.1574 126.122 19.3412C126.089 19.6116 125.981 19.7954 125.806 19.9036C125.632 20.0117 125.415 20.0658 125.153 20.0874C124.74 20.0874 123.434 19.7846 123.074 19.6548C122.193 19.3412 120.081 18.4112 119.254 18.0543V18.249C119.254 19.3628 119.025 20.4335 118.59 21.4284C118.339 21.9799 118.046 22.4882 117.697 22.9641C121.006 24.6295 123.64 24.9539 125.48 24.8566C127.853 24.7376 129.213 23.9049 130.182 22.9965C130.694 22.5099 131.064 21.9042 131.347 21.2337C131.63 20.5524 131.76 19.7954 131.739 18.9519C131.76 18.3787 131.662 17.838 131.456 17.3297Z"
            fill="url(#paint2_linear)"/>
    <path
            d="M112.603 18.0218C112.603 18.4219 112.451 18.768 112.135 19.06C111.819 19.352 111.46 19.5034 111.047 19.5034C110.644 19.5034 110.296 19.352 109.98 19.06C109.664 18.768 109.512 18.4219 109.512 18.0218V7.40201H104.472V18.2597C104.472 19.1465 104.646 19.99 105.006 20.7795C105.354 21.569 105.833 22.2503 106.431 22.8342C107.03 23.4182 107.727 23.8724 108.521 24.2185C109.316 24.5646 110.154 24.7268 111.058 24.7268C111.95 24.7268 112.799 24.5537 113.605 24.2185C114.41 23.8724 115.107 23.4182 115.705 22.8342C116.304 22.2503 116.783 21.569 117.131 20.7795C117.48 19.99 117.665 19.1573 117.665 18.2597V7.40201H112.625V18.0218H112.603Z"
            fill="url(#paint3_linear)"/>
    <path
            d="M26.5154 26.1656L17.7313 31.2051C15.8918 32.265 13.6169 32.265 11.7773 31.2051L2.98243 26.1656C1.13202 25.1166 0 23.1592 0 21.0395V10.9496C0 8.84083 1.13202 6.88341 2.98243 5.8344L11.7665 0.794863C13.606 -0.264954 15.8809 -0.264954 17.7204 0.794863L26.5154 5.8344C28.3549 6.89422 29.4978 8.85164 29.4978 10.9605V21.0504C29.4978 23.1592 28.3658 25.1166 26.5154 26.1656Z"
            fill="url(#paint4_linear)"/>
    <path
            d="M10.9936 17.3946C11.2004 17.4919 11.3746 17.6433 11.5052 17.8272C11.6358 18.011 11.7447 18.2381 11.81 18.4977C11.8753 18.7572 11.9079 19.06 11.9079 19.3844V21.6014C11.9079 22.1746 11.9841 22.7261 12.1365 23.2452C12.2889 23.7643 12.5502 24.2509 12.9311 24.6835C13.3012 25.1269 13.791 25.5162 14.4006 25.8623C15.0101 26.2084 15.7503 26.4787 16.6102 26.695L17.383 24.7592C17.0673 24.6511 16.8061 24.4889 16.5993 24.2942C16.3925 24.0887 16.2292 23.8508 16.1095 23.5805C15.9897 23.3101 15.9027 23.0073 15.8482 22.672C15.8047 22.3368 15.772 21.9799 15.772 21.6122V19.3953C15.772 18.6707 15.5761 18.011 15.1843 17.427C14.7924 16.8322 14.172 16.3564 13.3121 16.0103C14.172 15.6643 14.7924 15.1884 15.1843 14.6044C15.5761 14.0096 15.772 13.35 15.772 12.6254V10.3868C15.772 10.0191 15.7938 9.66223 15.8482 9.32699C15.8918 8.99174 15.9789 8.68893 16.1095 8.41857C16.2292 8.14821 16.3925 7.91029 16.5993 7.70482C16.8061 7.49934 17.0673 7.34794 17.383 7.23979L16.6102 5.31482C15.7503 5.53111 15.0101 5.80147 14.4006 6.13672C13.791 6.47197 13.3012 6.86129 12.9311 7.30468C12.561 7.74807 12.2998 8.22391 12.1365 8.743C11.9841 9.2621 11.9079 9.81364 11.9079 10.3868V12.6038C11.9079 13.2634 11.7773 13.7825 11.5052 14.1719C11.244 14.5612 10.8195 14.7558 10.2317 14.7558V17.2324C10.5256 17.2432 10.7759 17.2864 10.9936 17.3946Z"
            fill="white"/>
    <defs>
        <linearGradient id="paint0_linear" x1="97.0147" y1="7.19081" x2="97.0147" y2="25.0367"
                        gradientUnits="userSpaceOnUse">
            <stop stop-color="#F48F41"/>
            <stop offset="1" stop-color="#F05E2D"/>
        </linearGradient>
        <linearGradient id="paint1_linear" x1="139.82" y1="7.19081" x2="139.82" y2="25.0367"
                        gradientUnits="userSpaceOnUse">
            <stop stop-color="#F48F41"/>
            <stop offset="1" stop-color="#F05E2D"/>
        </linearGradient>
        <linearGradient id="paint2_linear" x1="124.742" y1="7.19084" x2="124.742" y2="25.0368"
                        gradientUnits="userSpaceOnUse">
            <stop stop-color="#F48F41"/>
            <stop offset="1" stop-color="#F05E2D"/>
        </linearGradient>
        <linearGradient id="paint3_linear" x1="111.058" y1="7.1908" x2="111.058" y2="25.0367"
                        gradientUnits="userSpaceOnUse">
            <stop stop-color="#F48F41"/>
            <stop offset="1" stop-color="#F05E2D"/>
        </linearGradient>
        <linearGradient id="paint4_linear" x1="14.7483" y1="0.38413" x2="14.7483" y2="32.1407"
                        gradientUnits="userSpaceOnUse">
            <stop stop-color="#F48F41"/>
            <stop offset="1" stop-color="#F05E2D"/>
        </linearGradient>
    </defs>
</svg>
